<svg width="65" height="65" viewBox="0 0 65 65" fill="none" xmlns="http://www.w3.org/2000/svg">
<rect width="65" height="65" rx="32.5" fill="#F7F5F5"/>
<path d="M28.75 25.75C28.2859 25.75 27.8408 25.9344 27.5126 26.2626C27.1844 26.5908 27 27.0359 27 27.5V37.5C27 38.466 27.784 39.25 28.75 39.25H29.75C30.2141 39.25 30.6592 39.0656 30.9874 38.7374C31.3156 38.4092 31.5 37.9641 31.5 37.5V27.5C31.5 27.0359 31.3156 26.5908 30.9874 26.2626C30.6592 25.9344 30.2141 25.75 29.75 25.75H28.75ZM35.25 25.75C34.7859 25.75 34.3408 25.9344 34.0126 26.2626C33.6844 26.5908 33.5 27.0359 33.5 27.5V37.5C33.5 38.466 34.284 39.25 35.25 39.25H36.25C36.7141 39.25 37.1592 39.0656 37.4874 38.7374C37.8156 38.4092 38 37.9641 38 37.5V27.5C38 27.0359 37.8156 26.5908 37.4874 26.2626C37.1592 25.9344 36.7141 25.75 36.25 25.75H35.25Z" fill="black"/>
</svg>
