<svg width="50" height="50" viewBox="0 0 50 50" fill="none" xmlns="http://www.w3.org/2000/svg">
<rect width="50" height="50" rx="25" fill="#F7F5F5"/>
<path d="M20.9055 22.6366L19.1212 20.4917C18.8335 20.1458 18.2776 20.322 18.2439 20.7663L17.7464 26.1101C17.7205 26.3918 17.9188 26.6301 18.2004 26.6559L23.5379 27.1458C23.9821 27.1795 24.2566 26.665 23.9688 26.3191L22.1845 24.1742C25.0521 21.7888 29.5071 22.5314 31.3517 26.031C32.442 28.0767 32.1978 30.6602 30.761 32.4669C28.4961 35.3265 24.4845 35.4767 21.9987 33.239C21.6379 32.9148 21.0784 32.8989 20.7017 33.2123C20.2405 33.596 20.2104 34.3104 20.6556 34.7205C23.9397 37.699 29.2317 37.5243 32.2796 33.7921C34.2881 31.3278 34.6125 27.793 33.0862 25.0043C30.5665 20.4274 24.7032 19.4774 20.9055 22.6366Z" fill="black"/>
</svg>
