<svg width="50" height="50" viewBox="0 0 50 50" fill="none" xmlns="http://www.w3.org/2000/svg">
<rect width="50" height="50" rx="25" fill="#F7F5F5"/>
<path d="M29.2254 21.5002C28.9602 21.5002 28.7058 21.6055 28.5183 21.7931C28.3307 21.9806 28.2254 22.235 28.2254 22.5002V26.3202L28.0854 26.1702L22.9854 21.9602C22.6784 21.7142 22.3084 21.5594 21.9177 21.5134C21.5269 21.4674 21.1311 21.5322 20.7754 21.7002C20.4756 21.8437 20.2225 22.0692 20.0456 22.3506C19.8686 22.632 19.7749 22.9578 19.7754 23.2902V31.7102C19.7749 32.0426 19.8686 32.3684 20.0456 32.6497C20.2225 32.9311 20.4756 33.1566 20.7754 33.3002C21.0613 33.4302 21.3714 33.4983 21.6854 33.5002C22.1587 33.5008 22.6178 33.3383 22.9854 33.0402L28.0854 28.8302L28.2254 28.6802V32.5002C28.2254 32.7654 28.3307 33.0198 28.5183 33.2073C28.7058 33.3948 28.9602 33.5002 29.2254 33.5002C29.4906 33.5002 29.745 33.3948 29.9325 33.2073C30.12 33.0198 30.2254 32.7654 30.2254 32.5002V22.5002C30.2254 22.235 30.12 21.9806 29.9325 21.7931C29.745 21.6055 29.4906 21.5002 29.2254 21.5002Z" fill="black"/>
</svg>
